<?xml version="1.0" encoding="UTF-8" standalone="no"?>
<!-- Created with Inkscape (http://www.inkscape.org/) -->

<svg
   xmlns:dc="http://purl.org/dc/elements/1.1/"
   xmlns:cc="http://creativecommons.org/ns#"
   xmlns:rdf="http://www.w3.org/1999/02/22-rdf-syntax-ns#"
   xmlns:svg="http://www.w3.org/2000/svg"
   xmlns="http://www.w3.org/2000/svg"
   xmlns:sodipodi="http://sodipodi.sourceforge.net/DTD/sodipodi-0.dtd"
   xmlns:inkscape="http://www.inkscape.org/namespaces/inkscape"
   width="108"
   height="108"
   viewBox="0 0 108 108"
   version="1.1"
   id="svg8"
   sodipodi:docname="ic_launcher_foreground.svg"
   inkscape:version="0.92.4 5da689c313, 2019-01-14">
  <defs
     id="defs2" />
  <sodipodi:namedview
     id="base"
     pagecolor="#ffffff"
     bordercolor="#666666"
     borderopacity="1.0"
     inkscape:pageopacity="0.0"
     inkscape:pageshadow="2"
     inkscape:zoom="5.5651923"
     inkscape:cx="50.473824"
     inkscape:cy="56.736733"
     inkscape:document-units="px"
     inkscape:current-layer="layer1"
     showgrid="true"
     inkscape:snap-global="false"
     units="px"
     inkscape:window-width="1920"
     inkscape:window-height="1047"
     inkscape:window-x="0"
     inkscape:window-y="33"
     inkscape:window-maximized="1">
    <inkscape:grid
       type="xygrid"
       id="grid819" />
  </sodipodi:namedview>
  <metadata
     id="metadata5">
    <rdf:RDF>
      <cc:Work
         rdf:about="">
        <dc:format>image/svg+xml</dc:format>
        <dc:type
           rdf:resource="http://purl.org/dc/dcmitype/StillImage" />
        <dc:title></dc:title>
      </cc:Work>
    </rdf:RDF>
  </metadata>
  <g
     inkscape:label="Layer 1"
     inkscape:groupmode="layer"
     id="layer1"
     transform="translate(0,-1014.5197)">
    <path
       style="fill:#bf360c;fill-opacity:1;stroke:none;stroke-width:35.73605728;stroke-linecap:round;stroke-linejoin:round;stroke-miterlimit:4;stroke-dasharray:none;stroke-opacity:1"
       d="M 0 0 L 0 108 L 108 108 L 108 0 L 0 0 z M 54 22 A 32 32 0 0 1 86 54 A 32 32 0 0 1 54 86 A 32 32 0 0 1 22 54 A 32 32 0 0 1 54 22 z M 52.460938 36.900391 L 52.460938 41.019531 C 50.567604 41.392865 49.073802 42.232396 47.980469 43.539062 C 46.913802 44.819063 46.380859 46.446589 46.380859 48.419922 C 46.380859 49.619922 46.633958 50.632318 47.140625 51.458984 C 47.673958 52.285651 48.326276 53.005807 49.099609 53.619141 C 49.899609 54.232474 50.75349 54.76737 51.660156 55.220703 C 52.566823 55.64737 53.406354 56.085729 54.179688 56.539062 C 54.979688 56.965729 55.633958 57.420391 56.140625 57.900391 C 56.673958 58.380391 56.939453 58.966823 56.939453 59.660156 C 56.939453 60.59349 56.673958 61.286901 56.140625 61.740234 C 55.633958 62.193568 54.819219 62.419922 53.699219 62.419922 C 52.739219 62.419922 51.792708 62.232708 50.859375 61.859375 C 49.952708 61.459375 48.993802 60.872943 47.980469 60.099609 L 45.419922 64.060547 C 46.353255 64.91388 47.460234 65.607292 48.740234 66.140625 C 50.046901 66.647292 51.287604 66.966276 52.460938 67.099609 L 52.460938 71.099609 L 56.339844 71.099609 L 56.339844 66.939453 C 58.419844 66.48612 59.979531 65.580703 61.019531 64.220703 C 62.059531 62.834036 62.580078 61.179766 62.580078 59.259766 C 62.580078 57.979766 62.31263 56.91388 61.779297 56.060547 C 61.27263 55.180547 60.620313 54.433646 59.820312 53.820312 C 59.046979 53.206979 58.207448 52.686432 57.300781 52.259766 C 56.394115 51.833099 55.540234 51.419531 54.740234 51.019531 C 53.966901 50.619531 53.31263 50.205964 52.779297 49.779297 C 52.27263 49.325964 52.019531 48.780625 52.019531 48.140625 C 52.019531 47.233958 52.27263 46.579687 52.779297 46.179688 C 53.285964 45.779688 54.020469 45.580078 54.980469 45.580078 C 55.833802 45.580078 56.593099 45.752943 57.259766 46.099609 C 57.926432 46.419609 58.619844 46.913411 59.339844 47.580078 L 62.300781 44.220703 C 61.527448 43.394036 60.659219 42.686276 59.699219 42.099609 C 58.739219 41.512943 57.619844 41.12612 56.339844 40.939453 L 56.339844 36.900391 L 52.460938 36.900391 z "
       transform="translate(0,1014.5197)"
       id="rect830" />
  </g>
</svg>
